<?xml version="1.0" encoding="UTF-8"?>
<svg xmlns="http://www.w3.org/2000/svg" xmlns:xlink="http://www.w3.org/1999/xlink" width="8pt" height="8pt" viewBox="0 0 8 8" version="1.1">
<g id="surface1">
<path style=" stroke:none;fill-rule:nonzero;fill:rgb(100%,100%,100%);fill-opacity:1;" d="M 3.332031 2.40625 L 2.199219 3.332031 L 1 3.332031 L 1 4.667969 L 2.199219 4.667969 L 3.332031 5.59375 Z M 1.964844 5.332031 L 0.667969 5.332031 C 0.484375 5.332031 0.332031 5.183594 0.332031 5 L 0.332031 3 C 0.332031 2.816406 0.484375 2.667969 0.667969 2.667969 L 1.964844 2.667969 L 3.726562 1.222656 C 3.777344 1.179688 3.847656 1.171875 3.90625 1.199219 C 3.964844 1.226562 4 1.285156 4 1.351562 L 4 6.648438 C 4 6.714844 3.964844 6.773438 3.90625 6.800781 C 3.847656 6.828125 3.777344 6.820312 3.726562 6.777344 Z M 6.46875 6.710938 L 5.996094 6.238281 C 6.652344 5.65625 7.015625 4.8125 7 3.933594 C 6.980469 3.058594 6.578125 2.234375 5.898438 1.675781 L 6.371094 1.203125 C 7.175781 1.886719 7.644531 2.882812 7.664062 3.9375 C 7.683594 4.992188 7.246094 6 6.464844 6.710938 Z M 5.289062 5.53125 L 4.8125 5.058594 C 5.160156 4.792969 5.351562 4.371094 5.332031 3.9375 C 5.3125 3.5 5.078125 3.101562 4.707031 2.871094 L 5.1875 2.390625 C 5.679688 2.753906 5.980469 3.324219 6 3.9375 C 6.019531 4.550781 5.753906 5.136719 5.285156 5.53125 Z M 5.289062 5.53125 "/>
</g>
</svg>
