<?xml version="1.0" encoding="UTF-8"?>
<svg xmlns="http://www.w3.org/2000/svg" xmlns:xlink="http://www.w3.org/1999/xlink" width="8pt" height="8pt" viewBox="0 0 8 8" version="1.1">
<g id="surface1">
<path style=" stroke:none;fill-rule:nonzero;fill:rgb(100%,100%,100%);fill-opacity:1;" d="M 3.332031 2.40625 L 2.199219 3.332031 L 1 3.332031 L 1 4.667969 L 2.199219 4.667969 L 3.332031 5.59375 Z M 1.964844 5.332031 L 0.667969 5.332031 C 0.484375 5.332031 0.332031 5.183594 0.332031 5 L 0.332031 3 C 0.332031 2.816406 0.484375 2.667969 0.667969 2.667969 L 1.964844 2.667969 L 3.726562 1.222656 C 3.777344 1.179688 3.847656 1.171875 3.90625 1.199219 C 3.964844 1.226562 4 1.285156 4 1.351562 L 4 6.648438 C 4 6.714844 3.964844 6.773438 3.90625 6.800781 C 3.847656 6.828125 3.777344 6.820312 3.726562 6.777344 Z M 6.804688 4 L 7.984375 5.179688 L 7.511719 5.648438 L 6.332031 4.472656 L 5.15625 5.648438 L 4.683594 5.179688 L 5.863281 4 L 4.683594 2.820312 L 5.15625 2.351562 L 6.332031 3.527344 L 7.511719 2.351562 L 7.984375 2.820312 Z M 6.804688 4 "/>
</g>
</svg>
