<svg width="16" height="15" viewBox="0 0 16 15" fill="none" xmlns="http://www.w3.org/2000/svg">
<path d="M1.67069 4.71952L2.62737 12.8543H13.3725L14.3292 4.71952L11.3461 6.70802L7.99995 2.02356L4.6538 6.70802L1.67069 4.71952ZM1.15664 2.5882L4.28036 4.67117L7.3944 0.311803C7.46322 0.215368 7.55407 0.136762 7.6594 0.0825284C7.76472 0.0282944 7.88148 0 7.99995 0C8.11842 0 8.23518 0.0282944 8.34051 0.0825284C8.44584 0.136762 8.53669 0.215368 8.6055 0.311803L11.7195 4.67117L14.844 2.5882C14.9623 2.50952 15.1006 2.46635 15.2426 2.46376C15.3846 2.46118 15.5243 2.49931 15.6454 2.57363C15.7664 2.64795 15.8636 2.75537 15.9256 2.88319C15.9875 3.011 16.0115 3.15387 15.9949 3.29492L14.7726 13.6852C14.7513 13.8662 14.6643 14.033 14.5281 14.1541C14.392 14.2752 14.2161 14.3421 14.0339 14.3421H1.96602C1.78381 14.3421 1.60795 14.2752 1.47178 14.1541C1.33562 14.033 1.24863 13.8662 1.22731 13.6852L0.00505245 3.29418C-0.0114626 3.15319 0.0127038 3.01042 0.0746987 2.88273C0.136694 2.75503 0.233929 2.64774 0.354926 2.57351C0.475923 2.49929 0.61563 2.46123 0.757556 2.46383C0.899482 2.46643 1.0377 2.50959 1.1559 2.5882H1.15664ZM7.99995 9.8786C7.60535 9.8786 7.22692 9.72185 6.94789 9.44283C6.66887 9.1638 6.51211 8.78537 6.51211 8.39077C6.51211 7.99617 6.66887 7.61773 6.94789 7.33871C7.22692 7.05968 7.60535 6.90293 7.99995 6.90293C8.39455 6.90293 8.77299 7.05968 9.05201 7.33871C9.33104 7.61773 9.48779 7.99617 9.48779 8.39077C9.48779 8.78537 9.33104 9.1638 9.05201 9.44283C8.77299 9.72185 8.39455 9.8786 7.99995 9.8786Z" fill="#FF9FE5"/>
</svg>
